<?xml version="1.0" standalone="no"?>
<!DOCTYPE svg PUBLIC "-//W3C//DTD SVG 20010904//EN"
 "http://www.w3.org/TR/2001/REC-SVG-20010904/DTD/svg10.dtd">
<svg version="1.0" xmlns="http://www.w3.org/2000/svg"
 width="200.000000pt" height="200.000000pt" viewBox="0 0 200.000000 200.000000"
 preserveAspectRatio="xMidYMid meet">

<g transform="translate(0.000000,200.000000) scale(0.100000,-0.100000)"
fill="#000000" stroke="none">
<path d="M459 1551 c-40 -41 -41 -98 -1 -142 28 -31 51 -36 125 -27 7 1 135
-51 285 -116 150 -65 280 -116 290 -114 20 4 110 199 111 241 1 23 -5 31 -33
42 -19 8 -41 12 -49 9 -8 -3 -29 -39 -47 -80 -18 -41 -33 -74 -34 -74 -1 0
-105 44 -231 98 -207 89 -231 102 -248 133 -26 46 -45 58 -95 59 -35 0 -49 -6
-73 -29z m113 -28 c39 -35 11 -103 -43 -103 -29 0 -59 31 -59 60 0 50 64 78
102 43z"/>
<path d="M1443 1572 c-28 -4 -72 -48 -80 -80 -3 -14 -1 -39 5 -55 10 -26 0
-55 -110 -313 -105 -245 -119 -287 -107 -299 21 -20 228 -107 247 -103 24 4
53 67 42 88 -5 9 -39 29 -77 45 -37 16 -70 30 -72 31 -2 2 41 107 95 235 90
213 101 233 135 255 41 26 64 76 54 117 -13 49 -78 88 -132 79z m67 -62 c24
-24 25 -48 4 -78 -29 -42 -104 -18 -104 35 0 28 33 63 60 63 11 0 29 -9 40
-20z"/>
<path d="M830 1513 c-11 -26 -17 -50 -13 -54 14 -12 243 -109 259 -109 18 0
60 88 47 100 -12 11 -245 110 -260 110 -6 0 -21 -21 -33 -47z"/>
<path d="M570 1260 c-25 -25 -35 -66 -21 -83 6 -8 42 -26 81 -42 39 -16 69
-33 66 -39 -160 -386 -200 -475 -216 -479 -28 -7 -55 -56 -55 -100 0 -84 107
-128 173 -72 37 31 47 70 32 122 -10 36 -6 49 100 302 60 146 110 272 110 282
0 23 -13 32 -115 74 -143 59 -133 57 -155 35z m2 -697 c32 -28 23 -70 -21 -93
-20 -10 -27 -9 -50 7 -32 24 -38 58 -15 84 21 23 61 25 86 2z"/>
<path d="M1411 1078 c-24 -57 -50 -118 -57 -135 -14 -32 -14 -33 26 -53 21
-11 45 -20 53 -20 11 0 73 130 125 261 3 7 -81 49 -97 49 -4 0 -26 -46 -50
-102z"/>
<path d="M537 1113 c-13 -21 -108 -256 -105 -259 13 -13 94 -42 101 -35 11 11
107 243 107 258 0 7 -16 20 -36 28 -40 17 -60 19 -67 8z"/>
<path d="M823 842 c-14 -9 -103 -218 -103 -242 0 -22 17 -36 53 -45 37 -10 50
4 77 76 13 34 29 63 35 65 20 8 475 -187 475 -203 0 -8 13 -28 29 -44 55 -55
150 -33 172 40 24 79 -49 158 -122 132 -26 -9 -61 3 -314 109 -157 66 -286
120 -288 120 -1 0 -7 -4 -14 -8z m679 -279 c37 -33 11 -103 -39 -103 -12 0
-32 9 -43 20 -55 55 24 135 82 83z"/>
<path d="M879 603 c-13 -30 -16 -50 -10 -56 5 -5 66 -33 135 -62 90 -38 128
-49 135 -41 17 21 41 90 34 96 -11 9 -253 110 -265 110 -5 0 -18 -21 -29 -47z"/>
</g>
</svg>
